<?xml version="1.0" encoding="UTF-8" standalone="no"?>
<!-- Created with Inkscape (http://www.inkscape.org/) -->

<svg
   xmlns:dc="http://purl.org/dc/elements/1.1/"
   xmlns:cc="http://creativecommons.org/ns#"
   xmlns:rdf="http://www.w3.org/1999/02/22-rdf-syntax-ns#"
   xmlns:svg="http://www.w3.org/2000/svg"
   xmlns="http://www.w3.org/2000/svg"
   xmlns:sodipodi="http://sodipodi.sourceforge.net/DTD/sodipodi-0.dtd"
   xmlns:inkscape="http://www.inkscape.org/namespaces/inkscape"
   id="svg2"
   sodipodi:docname="SCGCVLP.svg"
   viewBox="0 0 363.3272 485.63575"
   version="1.1"
   inkscape:version="0.48.4 r9939"
   width="100%"
   height="100%"
   inkscape:export-filename="C:\Users\ahamon\ownCloud\documents\SCGCVLP.png"
   inkscape:export-xdpi="50"
   inkscape:export-ydpi="50">
  <defs
     id="defs11" />
  <title
     id="title3885">shopping cart</title>
  <sodipodi:namedview
     id="base"
     bordercolor="#666666"
     inkscape:pageshadow="2"
     inkscape:guide-bbox="true"
     pagecolor="#ffffff"
     inkscape:window-maximized="1"
     inkscape:zoom="1.7094443"
     inkscape:window-x="-8"
     inkscape:window-height="1058"
     showgrid="false"
     borderopacity="1.0"
     inkscape:current-layer="layer1"
     inkscape:cx="161.57833"
     inkscape:cy="323.28542"
     showguides="false"
     inkscape:window-y="-8"
     inkscape:window-width="1920"
     inkscape:pageopacity="0.0"
     inkscape:document-units="px"
     fit-margin-top="0"
     fit-margin-left="0"
     fit-margin-right="0"
     fit-margin-bottom="0">
    <sodipodi:guide
       id="guide3856"
       position="1530.3714,-257.99654"
       orientation="1,0" />
    <sodipodi:guide
       id="guide3858"
       position="1769.3414,-256.73215"
       orientation="1,0" />
    <sodipodi:guide
       id="guide3860"
       position="1769.3414,-217.53601"
       orientation="0,1" />
  </sodipodi:namedview>
  <g
     id="layer1"
     inkscape:label="Camada 1"
     inkscape:groupmode="layer"
     transform="translate(-648.17586,95.872597)">
    <path
       id="path3847"
       style="text-indent:0;text-transform:none;block-progression:tb;color:#000000;fill:#7a7a7c;fill-opacity:1;fill-rule:nonzero;stroke-width:1;stroke-linecap:butt;stroke-linejoin:miter;stroke-miterlimit:4;stroke-opacity:1;stroke-dasharray:none;stroke-dashoffset:0;marker:none;visibility:visible;display:inline;overflow:visible;enable-background:accumulate"
       inkscape:connector-curvature="0"
       d="m 1001.0663,41.891 c -0.5602,0.008 -1.13681,0.0575 -1.68761,0.15625 -0.01,0.002 -0.021,-0.002 -0.031,0 l -55.625,9.5 c -3.5377,0.60697 -6.5035,3.0328 -7.8125,6.375 a 2.529,2.529 0 0 0 0,0.0312 l -25.812,66.187 -251.91,6.2812 c -2.897,0.0724 -5.6164,1.3809 -7.5,3.5625 -1.8833,2.1817 -2.7899,5.0829 -2.4376,7.9688 l 13.906,115.03 c 0.5737,4.8261 4.561,8.6532 9.4063,9.0312 l 179.59,14.281 35.594,28 a 2.529,2.529 0 0 0 0.125,0.0937 c 0.038,0.0264 0.086,0.0365 0.125,0.0625 0.044,0.0291 0.081,0.0652 0.125,0.0937 6.4957,4.8485 8.1056,11.454 7.1876,15.125 -0.5231,2.0918 -1.3217,3.6286 -3.2188,4.8125 -1.8971,1.1838 -5.1742,2.0406 -10.781,1.7188 a 2.529,2.529 0 0 0 -0.063,0 c -0.1801,-0.006 -0.3823,-0.004 -0.5624,0 -0.03,6.9e-4 -0.064,-9.6e-4 -0.094,0 l -214.19,0.625 h -0.031 c -5.6288,-0.0359 -10.366,4.6852 -10.344,10.312 0.022,5.6278 4.7779,10.331 10.406,10.25 0.011,-1.5e-4 0.021,1.9e-4 0.031,0 l 15.656,-0.0312 c -5.8172,3.7083 -9.7187,10.195 -9.7187,17.562 0,11.459 9.3852,20.844 20.844,20.844 11.4588,0 20.844,-9.385 20.844,-20.844 0,-7.4072 -3.9118,-13.958 -9.7812,-17.656 l 176.38,-0.5 c -6.3545,3.5825 -10.688,10.384 -10.688,18.156 0,11.459 9.385,20.844 20.844,20.844 11.459,0 20.844,-9.385 20.844,-20.844 0,-9.9515 -7.0696,-18.341 -16.438,-20.375 8.8575,-3.1334 15.662,-9.5946 19.875,-19.469 a 2.529,2.529 0 0 0 0.1563,-0.375 c 3.23,-12.916 -2.4989,-26.959 -14.312,-36.094 a 2.529,2.529 0 0 0 -0.094,-0.0937 c -0.029,-0.0222 -0.034,-0.0716 -0.062,-0.0937 a 2.529,2.529 0 0 0 -0.3438,-0.34375 l -25.219,-19.781 78.656,-201.47 49.90601,-8.5 c 0.01,-0.002 0.021,0.002 0.031,0 5.2427,-0.84286 9.0768,-5.7292 8.625,-11.031 -0.4525,-5.3122 -5.0811,-9.4786 -10.406,-9.4062 z m -98.56301,98.125 -14.5,37.188 h -18.91 v -36.35 l 33.406,-0.84375 z m -40.625,1.0312 v 36.156 h -34.906 v -35.281 l 34.906,-0.875 z m -42.125,1.0312 v 35.125 h -34.906 v -34.25 l 34.906,-0.875 z m -42.125,1.0625 v 34.062 h -34.906 v -33.188 l 34.906,-0.875 z m -42.125,1.0625 v 33 h -34.906 v -32.125 l 34.906,-0.875 z m -42.125,1.0312 v 31.969 h -25.594 l -3.7813,-31.219 29.375,-0.75 z m -24.719,39.156 h 24.719 v 32.656 h -20.781 l -3.9375,-32.656 z m 31.938,0 h 34.906 v 32.656 h -34.906 v -32.656 z m 42.125,0 h 34.906 v 32.656 h -34.906 v -32.656 z m 42.125,0 h 34.906 v 32.656 h -34.906 v -32.656 z m 42.125,0 h 34.906 v 32.656 h -34.906 v -32.656 z m 42.125,0 h 16.125 l -12.75,32.656 h -3.375 v -32.656 z m -195.62,39.844 h 19.906 v 23.438 l -17.25,-1.375 -2.6562,-22.062 z m 27.125,0 h 34.906 v 26.781 l -34.906,-2.7812 v -24 z m 42.125,0 h 34.906 v 30.125 l -34.906,-2.75 v -27.375 z m 42.125,0 h 34.906 v 33.5 l -34.906,-2.7812 v -30.719 z m 42.125,0 h 34.906 v 19.875 l -6.625,16.969 c -0.86,-0.41667 -1.7975,-0.6724 -2.75,-0.75 l -25.531,-2.0312 v -34.062 z m 42.125,0 h 0.5312 l -0.5312,1.4688 v -1.4688 z m -176.84,132.44 c 6.8111,0 12.25,5.439 12.25,12.25 0,6.811 -5.4389,12.219 -12.25,12.219 -6.8107,0 -12.25,-5.4078 -12.25,-12.219 0,-6.811 5.4393,-12.25 12.25,-12.25 z m 197.59,0 c 6.8109,0 12.25,5.439 12.25,12.25 0,6.811 -5.4391,12.219 -12.25,12.219 -6.811,0 -12.25,-5.4078 -12.25,-12.219 0,-6.811 5.439,-12.25 12.25,-12.25 z m -197.59,5.8125 c -3.7001,0 -6.6562,2.9561 -6.6562,6.6562 0,3.7002 2.9561,6.625 6.6562,6.625 3.7003,0 6.6563,-2.9248 6.6563,-6.625 0,-3.7002 -2.956,-6.6562 -6.6563,-6.6562 z m 197.59,0 c -3.7002,0 -6.6562,2.9561 -6.6562,6.6562 0,3.7002 2.956,6.625 6.6562,6.625 3.7001,0 6.6562,-2.9248 6.6562,-6.625 0,-3.7002 -2.9561,-6.6562 -6.6562,-6.6562 z" />
    <path
       d="M 734.51262,-35.015958"
       inkscape:connector-curvature="0"
       style="fill:#7a7a7c;fill-opacity:1"
       id="path1523-3" />
    <path
       d="m 739.97827,-9.7614374 c 13.94578,-3.0181816 22.8061,-16.7728946 19.78765,-30.7199056 -3.01832,-13.946406 -16.77675,-22.80591 -30.72129,-19.787996 -13.94763,3.018583 -22.80609,16.772894 -19.78777,30.719301 3.01844,13.947011 16.77131,22.807719 30.71894,19.789136 z"
       inkscape:connector-curvature="0"
       style="fill:#7a7a7c;fill-opacity:1"
       id="path1521-6" />
    <path
       d="M 714.15936,1.6607708 C 696.27599,5.5311371 685.05058,23.230915 688.98692,41.419167 l 16.78136,77.539743 c 3.26245,15.07443 25.32398,10.29981 22.06154,-4.77462 l -15.34387,-70.897711 5.2227,-1.130312 42.01496,194.133833 c 4.36198,20.1549 33.61128,13.20384 29.37766,-6.35799 l -24.38905,-112.69175 5.06006,-1.09511 24.38905,112.69175 c 4.23362,19.56183 33.90104,13.76198 29.53907,-6.39292 l -42.01496,-194.133839 5.10025,-1.10381 15.34388,70.897714 c 3.28761,15.190705 25.23398,10.440355 21.90692,-4.741155 L 807.35686,16.293276 c -3.63052,-16.77514396 -20.2134,-30.387121 -39.8488,-26.1375749 L 714.1603,1.6651475 z"
       inkscape:connector-curvature="0"
       style="fill:#7a7a7c;fill-opacity:1"
       id="path1525-8" />
    <g
       id="g5104"
       transform="matrix(0.41189114,-0.09314493,0.09314493,0.41189114,318.34477,57.459196)">
      <path
         id="path5068"
         transform="translate(648.17586,-60.859194)"
         d="m 618.90625,25.9375 -67.84375,70.09375 67.84375,70.125 224.65625,0 0,-140.21875 -224.65625,0 z M 599.5625,82.59375 c 7.43081,0 13.46875,6.006694 13.46875,13.4375 0,7.43081 -6.03794,13.46875 -13.46875,13.46875 -7.43081,0 -13.4375,-6.03794 -13.4375,-13.46875 0,-7.430806 6.00669,-13.4375 13.4375,-13.4375 z"
         style="fill:#7a7a7c;fill-opacity:1;stroke:none"
         inkscape:connector-curvature="0" />
      <text
         sodipodi:linespacing="125%"
         id="text5074"
         y="87.465927"
         x="1328.0702"
         style="font-size:153.08410645px;font-style:oblique;font-variant:normal;font-weight:normal;font-stretch:normal;text-align:start;line-height:125%;letter-spacing:0px;word-spacing:0px;writing-mode:lr-tb;text-anchor:start;color:#000000;fill:#ffffff;fill-opacity:1;fill-rule:nonzero;stroke:none;stroke-width:0.99999994;marker:none;visibility:visible;display:inline;overflow:visible;enable-background:accumulate;font-family:Sans;-inkscape-font-specification:Sans Oblique"
         xml:space="preserve"><tspan
           y="87.465927"
           x="1328.0702"
           id="tspan5076"
           sodipodi:role="line">€</tspan></text>
      <rect
         transform="matrix(0.47968883,0.87743868,-0.87743868,0.47968883,0,0)"
         y="-1193.4847"
         x="624.04315"
         height="8.819519"
         width="140.00986"
         id="rect5078"
         style="color:#000000;fill:#ffffff;fill-opacity:1;stroke:none;stroke-width:0.99999994;marker:none;visibility:visible;display:inline;overflow:visible;enable-background:accumulate" />
    </g>
    <path
       style="color:#000000;fill:none;stroke:#7a7a7c;stroke-width:3;stroke-linecap:round;stroke-linejoin:miter;stroke-miterlimit:4;stroke-opacity:1;stroke-dasharray:none;stroke-dashoffset:0;marker:none;visibility:visible;display:inline;overflow:visible;enable-background:accumulate"
       d="m 108.60317,17.525152 c 17.65666,-13.6384252 31.12589,0.587578 44.62192,7.381506 13.49603,6.793928 28.77966,-5.097837 31.26155,-6.752425"
       id="path5110"
       inkscape:connector-curvature="0"
       transform="translate(648.17586,-60.859194)"
       sodipodi:nodetypes="czc" />
  </g>
  <metadata
     id="metadata10">
    <rdf:RDF>
      <cc:Work>
        <dc:format>image/svg+xml</dc:format>
        <dc:type
           rdf:resource="http://purl.org/dc/dcmitype/StillImage" />
        <cc:license
           rdf:resource="http://creativecommons.org/licenses/publicdomain/" />
        <dc:publisher>
          <cc:Agent
             rdf:about="http://openclipart.org/">
            <dc:title>Openclipart</dc:title>
          </cc:Agent>
        </dc:publisher>
        <dc:title>shopping cart</dc:title>
      </cc:Work>
      <cc:License
         rdf:about="http://creativecommons.org/licenses/publicdomain/">
        <cc:permits
           rdf:resource="http://creativecommons.org/ns#Reproduction" />
        <cc:permits
           rdf:resource="http://creativecommons.org/ns#Distribution" />
        <cc:permits
           rdf:resource="http://creativecommons.org/ns#DerivativeWorks" />
      </cc:License>
    </rdf:RDF>
  </metadata>
</svg>
